<svg xmlns="http://www.w3.org/2000/svg" xmlns:xlink="http://www.w3.org/1999/xlink" width="1080" zoomAndPan="magnify" viewBox="0 0 810 149.999998" height="200" preserveAspectRatio="xMidYMid meet" version="1.0"><defs><clipPath id="4b9342da0c"><path d="M 83 28.199219 L 795 28.199219 L 795 121.949219 L 83 121.949219 Z M 83 28.199219 " clip-rule="nonzero"/></clipPath></defs><path fill="#000000" d="M 122.714844 32.625 L 101.734375 32.625 L 93.867188 49.136719 L 114.847656 49.136719 Z M 122.714844 32.625 " fill-opacity="1" fill-rule="nonzero"/><path fill="#000000" d="M 79.894531 55.699219 L 59.582031 55.699219 L 51.960938 71.683594 L 72.277344 71.683594 Z M 79.894531 55.699219 " fill-opacity="1" fill-rule="nonzero"/><g clip-path="url(#4b9342da0c)"><path fill="#000000" d="M 783.433594 75.8125 L 794.984375 51.566406 L 766.292969 51.566406 L 777.164062 28.757812 L 746.351562 28.757812 L 735.484375 51.566406 L 707.542969 51.566406 L 718.414062 28.757812 L 687.605469 28.757812 L 676.734375 51.566406 L 648.792969 51.566406 L 659.660156 28.757812 L 628.851562 28.757812 L 617.984375 51.566406 L 590.042969 51.566406 L 600.910156 28.757812 L 570.101562 28.757812 L 559.234375 51.566406 L 531.292969 51.566406 L 542.160156 28.757812 L 511.351562 28.757812 L 500.484375 51.566406 L 472.542969 51.566406 L 483.410156 28.757812 L 452.601562 28.757812 L 441.730469 51.566406 L 413.789062 51.566406 L 424.660156 28.757812 L 393.851562 28.757812 L 382.980469 51.566406 L 355.039062 51.566406 L 365.90625 28.757812 L 335.097656 28.757812 L 324.230469 51.566406 L 296.289062 51.566406 L 307.15625 28.757812 L 276.347656 28.757812 L 265.480469 51.566406 L 237.535156 51.566406 L 248.40625 28.757812 L 217.597656 28.757812 L 206.730469 51.566406 L 178.789062 51.566406 L 189.65625 28.757812 L 158.847656 28.757812 L 147.980469 51.566406 L 117.917969 51.566406 L 106.363281 75.8125 L 135.054688 75.8125 L 124.871094 97.1875 L 94.8125 97.1875 L 83.257812 121.429688 L 114.066406 121.429688 L 124.9375 98.621094 L 152.878906 98.621094 L 142.007812 121.429688 L 172.816406 121.429688 L 183.6875 98.621094 L 211.628906 98.621094 L 200.761719 121.429688 L 231.570312 121.429688 L 242.4375 98.621094 L 270.378906 98.621094 L 259.511719 121.429688 L 290.320312 121.429688 L 301.191406 98.621094 L 329.132812 98.621094 L 318.265625 121.429688 L 349.074219 121.429688 L 359.941406 98.621094 L 387.882812 98.621094 L 377.011719 121.429688 L 407.820312 121.429688 L 418.691406 98.621094 L 446.632812 98.621094 L 435.761719 121.429688 L 466.574219 121.429688 L 477.441406 98.621094 L 505.382812 98.621094 L 494.511719 121.429688 L 525.320312 121.429688 L 536.191406 98.621094 L 564.132812 98.621094 L 553.265625 121.429688 L 584.074219 121.429688 L 594.941406 98.621094 L 622.882812 98.621094 L 612.015625 121.429688 L 642.824219 121.429688 L 653.695312 98.621094 L 681.632812 98.621094 L 670.765625 121.429688 L 701.574219 121.429688 L 712.441406 98.621094 L 740.382812 98.621094 L 729.515625 121.429688 L 760.324219 121.429688 L 771.878906 97.1875 L 743.1875 97.1875 L 753.371094 75.8125 Z M 763.492188 53.003906 L 753.308594 74.378906 L 725.363281 74.378906 L 735.550781 53.003906 Z M 704.742188 53.003906 L 694.554688 74.378906 L 666.617188 74.378906 L 676.800781 53.003906 Z M 645.988281 53.003906 L 635.804688 74.378906 L 607.863281 74.378906 L 618.050781 53.003906 Z M 587.242188 53.003906 L 577.054688 74.378906 L 549.113281 74.378906 L 559.296875 53.003906 Z M 528.488281 53.003906 L 518.304688 74.378906 L 490.363281 74.378906 L 500.546875 53.003906 Z M 469.738281 53.003906 L 459.554688 74.378906 L 431.613281 74.378906 L 441.796875 53.003906 Z M 410.988281 53.003906 L 400.804688 74.378906 L 372.863281 74.378906 L 383.046875 53.003906 Z M 352.238281 53.003906 L 342.050781 74.378906 L 314.109375 74.378906 L 324.292969 53.003906 Z M 293.484375 53.003906 L 283.300781 74.378906 L 255.359375 74.378906 L 265.542969 53.003906 Z M 234.734375 53.003906 L 224.550781 74.378906 L 196.609375 74.378906 L 206.792969 53.003906 Z M 175.984375 53.003906 L 165.800781 74.378906 L 137.859375 74.378906 L 148.042969 53.003906 Z M 155.679688 97.1875 L 165.867188 75.8125 L 193.804688 75.8125 L 183.621094 97.1875 Z M 214.433594 97.1875 L 224.617188 75.8125 L 252.558594 75.8125 L 242.375 97.1875 Z M 273.179688 97.1875 L 283.367188 75.8125 L 311.308594 75.8125 L 301.125 97.1875 Z M 331.933594 97.1875 L 342.117188 75.8125 L 370.058594 75.8125 L 359.875 97.1875 Z M 390.683594 97.1875 L 400.867188 75.8125 L 428.808594 75.8125 L 418.625 97.1875 Z M 449.433594 97.1875 L 459.617188 75.8125 L 487.5625 75.8125 L 477.375 97.1875 Z M 508.183594 97.1875 L 518.371094 75.8125 L 546.308594 75.8125 L 536.125 97.1875 Z M 566.9375 97.1875 L 577.121094 75.8125 L 605.0625 75.8125 L 594.875 97.1875 Z M 625.683594 97.1875 L 635.871094 75.8125 L 663.8125 75.8125 L 653.628906 97.1875 Z M 684.4375 97.1875 L 694.621094 75.8125 L 722.5625 75.8125 L 712.378906 97.1875 Z M 684.4375 97.1875 " fill-opacity="1" fill-rule="nonzero"/></g><path fill="#000000" d="M 19.671875 81.597656 L 15 91.402344 L 27.457031 91.402344 L 32.132812 81.597656 Z M 19.671875 81.597656 " fill-opacity="1" fill-rule="nonzero"/><path fill="#000000" d="M 102.84375 76.390625 L 77.15625 76.390625 L 67.523438 96.605469 L 93.210938 96.605469 Z M 102.84375 76.390625 " fill-opacity="1" fill-rule="nonzero"/><path fill="#000000" d="M 31.8125 115.609375 L 47.824219 115.609375 L 53.832031 103.007812 L 37.816406 103.007812 Z M 31.8125 115.609375 " fill-opacity="1" fill-rule="nonzero"/></svg>
